<svg xmlns="http://www.w3.org/2000/svg" viewBox="0 0 800 500" fill="none">
  <rect width="800" height="500" fill="#0a0a0a"/>
  <defs>
    <pattern id="grid" width="40" height="40" patternUnits="userSpaceOnUse">
      <path d="M 40 0 L 0 0 0 40" fill="none" stroke="rgba(255,255,255,0.03)" stroke-width="1"/>
    </pattern>
    <linearGradient id="accent" x1="0" y1="0" x2="1" y2="1">
      <stop offset="0%" stop-color="#f59e0b" stop-opacity="0.4"/>
      <stop offset="100%" stop-color="#ef4444" stop-opacity="0.3"/>
    </linearGradient>
  </defs>
  <rect width="800" height="500" fill="url(#grid)"/>
  <!-- Hero section -->
  <rect x="50" y="40" width="700" height="160" rx="8" fill="rgba(255,255,255,0.02)" stroke="rgba(255,255,255,0.06)" stroke-width="1"/>
  <!-- Hero text -->
  <rect x="80" y="70" width="120" height="6" rx="3" fill="rgba(255,255,255,0.06)"/>
  <rect x="80" y="90" width="300" height="18" rx="4" fill="rgba(255,255,255,0.12)"/>
  <rect x="80" y="120" width="400" height="6" rx="3" fill="rgba(255,255,255,0.06)"/>
  <rect x="80" y="134" width="350" height="6" rx="3" fill="rgba(255,255,255,0.04)"/>
  <!-- Hero accent -->
  <rect x="600" y="60" width="120" height="120" rx="8" fill="url(#accent)"/>
  <!-- Rocket icon in accent -->
  <text x="640" y="135" font-size="40" fill="rgba(255,255,255,0.3)">🚀</text>
  
  <!-- Article cards grid -->
  <!-- Card 1 -->
  <rect x="50" y="230" width="225" height="230" rx="8" fill="rgba(255,255,255,0.02)" stroke="rgba(255,255,255,0.06)" stroke-width="1"/>
  <rect x="50" y="230" width="225" height="100" rx="8" fill="rgba(245,158,11,0.06)"/>
  <rect x="50" y="322" width="225" height="1" fill="rgba(255,255,255,0.04)"/>
  <!-- Tag -->
  <rect x="65" y="340" width="50" height="14" rx="7" fill="rgba(245,158,11,0.15)"/>
  <rect x="73" y="345" width="34" height="4" rx="2" fill="rgba(245,158,11,0.4)"/>
  <!-- Title -->
  <rect x="65" y="365" width="180" height="8" rx="3" fill="rgba(255,255,255,0.12)"/>
  <rect x="65" y="380" width="140" height="8" rx="3" fill="rgba(255,255,255,0.08)"/>
  <!-- Meta -->
  <rect x="65" y="405" width="80" height="4" rx="2" fill="rgba(255,255,255,0.04)"/>
  <rect x="160" y="405" width="60" height="4" rx="2" fill="rgba(255,255,255,0.04)"/>
  
  <!-- Card 2 -->
  <rect x="290" y="230" width="225" height="230" rx="8" fill="rgba(255,255,255,0.02)" stroke="rgba(255,255,255,0.06)" stroke-width="1"/>
  <rect x="290" y="230" width="225" height="100" rx="8" fill="rgba(99,102,241,0.06)"/>
  <rect x="290" y="322" width="225" height="1" fill="rgba(255,255,255,0.04)"/>
  <rect x="305" y="340" width="50" height="14" rx="7" fill="rgba(99,102,241,0.15)"/>
  <rect x="313" y="345" width="34" height="4" rx="2" fill="rgba(99,102,241,0.4)"/>
  <rect x="305" y="365" width="190" height="8" rx="3" fill="rgba(255,255,255,0.12)"/>
  <rect x="305" y="380" width="150" height="8" rx="3" fill="rgba(255,255,255,0.08)"/>
  <rect x="305" y="405" width="80" height="4" rx="2" fill="rgba(255,255,255,0.04)"/>
  <rect x="400" y="405" width="60" height="4" rx="2" fill="rgba(255,255,255,0.04)"/>
  
  <!-- Card 3 -->
  <rect x="530" y="230" width="225" height="230" rx="8" fill="rgba(255,255,255,0.02)" stroke="rgba(255,255,255,0.06)" stroke-width="1"/>
  <rect x="530" y="230" width="225" height="100" rx="8" fill="rgba(16,185,129,0.06)"/>
  <rect x="530" y="322" width="225" height="1" fill="rgba(255,255,255,0.04)"/>
  <rect x="545" y="340" width="50" height="14" rx="7" fill="rgba(16,185,129,0.15)"/>
  <rect x="553" y="345" width="34" height="4" rx="2" fill="rgba(16,185,129,0.4)"/>
  <rect x="545" y="365" width="170" height="8" rx="3" fill="rgba(255,255,255,0.12)"/>
  <rect x="545" y="380" width="130" height="8" rx="3" fill="rgba(255,255,255,0.08)"/>
  <rect x="545" y="405" width="80" height="4" rx="2" fill="rgba(255,255,255,0.04)"/>
  <rect x="640" y="405" width="60" height="4" rx="2" fill="rgba(255,255,255,0.04)"/>
</svg>
