<svg xmlns="http://www.w3.org/2000/svg" viewBox="0 0 800 500" fill="none">
  <rect width="800" height="500" fill="#0a0a0a"/>
  <defs>
    <pattern id="grid" width="40" height="40" patternUnits="userSpaceOnUse">
      <path d="M 40 0 L 0 0 0 40" fill="none" stroke="rgba(255,255,255,0.03)" stroke-width="1"/>
    </pattern>
    <linearGradient id="violet" x1="0" y1="0" x2="1" y2="1">
      <stop offset="0%" stop-color="#8b5cf6" stop-opacity="0.4"/>
      <stop offset="100%" stop-color="#a78bfa" stop-opacity="0.25"/>
    </linearGradient>
  </defs>
  <rect width="800" height="500" fill="url(#grid)"/>

  <!-- Header -->
  <rect x="40" y="30" width="720" height="50" rx="8" fill="rgba(255,255,255,0.02)" stroke="rgba(255,255,255,0.06)" stroke-width="1"/>
  <rect x="60" y="48" width="90" height="8" rx="4" fill="rgba(139,92,246,0.4)"/>
  <!-- New paste button -->
  <rect x="640" y="42" width="100" height="26" rx="6" fill="rgba(139,92,246,0.15)" stroke="rgba(139,92,246,0.3)" stroke-width="1"/>
  <rect x="660" y="52" width="60" height="5" rx="2" fill="rgba(139,92,246,0.5)"/>

  <!-- Editor area -->
  <rect x="40" y="100" width="480" height="360" rx="8" fill="rgba(255,255,255,0.01)" stroke="rgba(255,255,255,0.06)" stroke-width="1"/>
  <!-- Editor toolbar -->
  <rect x="40" y="100" width="480" height="35" rx="8" fill="rgba(255,255,255,0.02)"/>
  <rect x="55" y="112" width="50" height="5" rx="2" fill="rgba(255,255,255,0.08)"/>
  <rect x="115" y="112" width="50" height="5" rx="2" fill="rgba(255,255,255,0.06)"/>
  <rect x="175" y="112" width="40" height="5" rx="2" fill="rgba(255,255,255,0.06)"/>
  <line x1="40" y1="135" x2="520" y2="135" stroke="rgba(255,255,255,0.04)" stroke-width="1"/>

  <!-- Line numbers -->
  <rect x="55" y="150" width="14" height="5" rx="2" fill="rgba(139,92,246,0.2)"/>
  <rect x="55" y="168" width="14" height="5" rx="2" fill="rgba(139,92,246,0.2)"/>
  <rect x="55" y="186" width="14" height="5" rx="2" fill="rgba(139,92,246,0.2)"/>
  <rect x="55" y="204" width="14" height="5" rx="2" fill="rgba(139,92,246,0.2)"/>
  <rect x="55" y="222" width="14" height="5" rx="2" fill="rgba(139,92,246,0.2)"/>
  <rect x="55" y="240" width="14" height="5" rx="2" fill="rgba(139,92,246,0.2)"/>
  <rect x="55" y="258" width="14" height="5" rx="2" fill="rgba(139,92,246,0.2)"/>
  <rect x="55" y="276" width="14" height="5" rx="2" fill="rgba(139,92,246,0.2)"/>
  <rect x="55" y="294" width="14" height="5" rx="2" fill="rgba(139,92,246,0.2)"/>
  <rect x="55" y="312" width="14" height="5" rx="2" fill="rgba(139,92,246,0.2)"/>
  <rect x="55" y="330" width="14" height="5" rx="2" fill="rgba(139,92,246,0.15)"/>
  <rect x="55" y="348" width="14" height="5" rx="2" fill="rgba(139,92,246,0.15)"/>

  <!-- Code lines (syntax-highlighted look) -->
  <rect x="82" y="150" width="80" height="5" rx="2" fill="rgba(139,92,246,0.3)"/>
  <rect x="170" y="150" width="120" height="5" rx="2" fill="rgba(255,255,255,0.08)"/>

  <rect x="82" y="168" width="50" height="5" rx="2" fill="rgba(6,182,212,0.3)"/>
  <rect x="140" y="168" width="180" height="5" rx="2" fill="rgba(255,255,255,0.06)"/>

  <rect x="82" y="186" width="40" height="5" rx="2" fill="rgba(245,158,11,0.3)"/>
  <rect x="130" y="186" width="200" height="5" rx="2" fill="rgba(255,255,255,0.08)"/>
  <rect x="340" y="186" width="60" height="5" rx="2" fill="rgba(16,185,129,0.3)"/>

  <rect x="82" y="204" width="60" height="5" rx="2" fill="rgba(255,255,255,0.06)"/>
  <rect x="150" y="204" width="140" height="5" rx="2" fill="rgba(255,255,255,0.08)"/>

  <rect x="82" y="222" width="90" height="5" rx="2" fill="rgba(139,92,246,0.25)"/>
  <rect x="180" y="222" width="100" height="5" rx="2" fill="rgba(255,255,255,0.06)"/>

  <rect x="82" y="240" width="30" height="5" rx="2" fill="rgba(255,255,255,0.06)"/>
  <rect x="120" y="240" width="250" height="5" rx="2" fill="rgba(255,255,255,0.08)"/>

  <rect x="82" y="258" width="70" height="5" rx="2" fill="rgba(6,182,212,0.3)"/>
  <rect x="160" y="258" width="160" height="5" rx="2" fill="rgba(255,255,255,0.06)"/>

  <rect x="82" y="276" width="180" height="5" rx="2" fill="rgba(255,255,255,0.06)"/>

  <rect x="82" y="294" width="50" height="5" rx="2" fill="rgba(245,158,11,0.25)"/>
  <rect x="140" y="294" width="120" height="5" rx="2" fill="rgba(255,255,255,0.08)"/>

  <rect x="82" y="312" width="100" height="5" rx="2" fill="rgba(255,255,255,0.06)"/>
  <rect x="190" y="312" width="80" height="5" rx="2" fill="rgba(16,185,129,0.25)"/>

  <rect x="82" y="330" width="150" height="5" rx="2" fill="rgba(255,255,255,0.04)"/>
  <rect x="82" y="348" width="200" height="5" rx="2" fill="rgba(255,255,255,0.04)"/>

  <!-- Sidebar - paste metadata -->
  <rect x="540" y="100" width="220" height="170" rx="8" fill="rgba(255,255,255,0.02)" stroke="rgba(255,255,255,0.06)" stroke-width="1"/>
  <!-- Title -->
  <rect x="560" y="120" width="60" height="5" rx="2" fill="rgba(255,255,255,0.1)"/>
  <rect x="560" y="135" width="160" height="8" rx="3" fill="rgba(255,255,255,0.12)"/>
  <!-- Expiry -->
  <rect x="560" y="160" width="50" height="5" rx="2" fill="rgba(255,255,255,0.08)"/>
  <rect x="560" y="175" width="100" height="6" rx="3" fill="rgba(139,92,246,0.2)"/>
  <!-- Language -->
  <rect x="560" y="198" width="55" height="5" rx="2" fill="rgba(255,255,255,0.08)"/>
  <rect x="560" y="213" width="80" height="6" rx="3" fill="rgba(139,92,246,0.2)"/>
  <!-- Share button -->
  <rect x="560" y="238" width="180" height="20" rx="4" fill="url(#violet)"/>
  <rect x="600" y="245" width="100" height="5" rx="2" fill="rgba(255,255,255,0.3)"/>

  <!-- Recent pastes sidebar -->
  <rect x="540" y="290" width="220" height="170" rx="8" fill="rgba(255,255,255,0.02)" stroke="rgba(255,255,255,0.06)" stroke-width="1"/>
  <rect x="560" y="308" width="80" height="6" rx="3" fill="rgba(255,255,255,0.1)"/>
  <!-- Paste items -->
  <rect x="560" y="330" width="180" height="30" rx="4" fill="rgba(255,255,255,0.02)" stroke="rgba(255,255,255,0.04)" stroke-width="1"/>
  <rect x="572" y="338" width="100" height="5" rx="2" fill="rgba(255,255,255,0.08)"/>
  <rect x="572" y="349" width="60" height="4" rx="2" fill="rgba(255,255,255,0.04)"/>

  <rect x="560" y="368" width="180" height="30" rx="4" fill="rgba(255,255,255,0.02)" stroke="rgba(255,255,255,0.04)" stroke-width="1"/>
  <rect x="572" y="376" width="120" height="5" rx="2" fill="rgba(255,255,255,0.08)"/>
  <rect x="572" y="387" width="50" height="4" rx="2" fill="rgba(255,255,255,0.04)"/>

  <rect x="560" y="406" width="180" height="30" rx="4" fill="rgba(255,255,255,0.02)" stroke="rgba(255,255,255,0.04)" stroke-width="1"/>
  <rect x="572" y="414" width="90" height="5" rx="2" fill="rgba(255,255,255,0.08)"/>
  <rect x="572" y="425" width="70" height="4" rx="2" fill="rgba(255,255,255,0.04)"/>
</svg>
