<svg xmlns="http://www.w3.org/2000/svg" viewBox="0 0 800 500" fill="none">
  <rect width="800" height="500" fill="#0a0a0a"/>
  <defs>
    <pattern id="grid" width="40" height="40" patternUnits="userSpaceOnUse">
      <path d="M 40 0 L 0 0 0 40" fill="none" stroke="rgba(255,255,255,0.03)" stroke-width="1"/>
    </pattern>
    <linearGradient id="amber" x1="0" y1="0" x2="1" y2="1">
      <stop offset="0%" stop-color="#f59e0b" stop-opacity="0.4"/>
      <stop offset="100%" stop-color="#d97706" stop-opacity="0.3"/>
    </linearGradient>
  </defs>
  <rect width="800" height="500" fill="url(#grid)"/>
  
  <!-- Dashboard header -->
  <rect x="40" y="30" width="720" height="50" rx="8" fill="rgba(255,255,255,0.02)" stroke="rgba(255,255,255,0.06)" stroke-width="1"/>
  <rect x="60" y="48" width="100" height="10" rx="5" fill="rgba(245,158,11,0.3)"/>
  <rect x="620" y="48" width="30" height="10" rx="5" fill="rgba(255,255,255,0.06)"/>
  <rect x="660" y="48" width="30" height="10" rx="5" fill="rgba(255,255,255,0.06)"/>
  <rect x="700" y="48" width="40" height="10" rx="5" fill="rgba(255,255,255,0.06)"/>
  <circle cx="730" cy="53" r="12" fill="rgba(245,158,11,0.15)"/>
  
  <!-- Sidebar -->
  <rect x="40" y="95" width="160" height="370" rx="8" fill="rgba(255,255,255,0.02)" stroke="rgba(255,255,255,0.06)" stroke-width="1"/>
  <!-- Sidebar items -->
  <rect x="55" y="120" width="130" height="28" rx="6" fill="rgba(245,158,11,0.1)" stroke="rgba(245,158,11,0.15)" stroke-width="1"/>
  <rect x="70" y="130" width="60" height="6" rx="3" fill="rgba(245,158,11,0.4)"/>
  
  <rect x="70" y="168" width="80" height="6" rx="3" fill="rgba(255,255,255,0.08)"/>
  <rect x="70" y="193" width="70" height="6" rx="3" fill="rgba(255,255,255,0.08)"/>
  <rect x="70" y="218" width="90" height="6" rx="3" fill="rgba(255,255,255,0.08)"/>
  <rect x="70" y="243" width="65" height="6" rx="3" fill="rgba(255,255,255,0.08)"/>
  <rect x="70" y="268" width="85" height="6" rx="3" fill="rgba(255,255,255,0.08)"/>
  
  <!-- Course cards -->
  <rect x="220" y="95" width="260" height="140" rx="8" fill="rgba(255,255,255,0.02)" stroke="rgba(255,255,255,0.06)" stroke-width="1"/>
  <rect x="220" y="95" width="260" height="6" rx="0" fill="url(#amber)"/>
  <rect x="240" y="120" width="140" height="8" rx="3" fill="rgba(255,255,255,0.12)"/>
  <rect x="240" y="138" width="200" height="5" rx="2" fill="rgba(255,255,255,0.05)"/>
  <rect x="240" y="150" width="180" height="5" rx="2" fill="rgba(255,255,255,0.04)"/>
  <!-- Progress bar -->
  <rect x="240" y="175" width="220" height="6" rx="3" fill="rgba(255,255,255,0.04)"/>
  <rect x="240" y="175" width="160" height="6" rx="3" fill="rgba(245,158,11,0.4)"/>
  <rect x="240" y="190" width="40" height="4" rx="2" fill="rgba(255,255,255,0.06)"/>
  
  <rect x="500" y="95" width="260" height="140" rx="8" fill="rgba(255,255,255,0.02)" stroke="rgba(255,255,255,0.06)" stroke-width="1"/>
  <rect x="500" y="95" width="260" height="6" rx="0" fill="rgba(99,102,241,0.4)"/>
  <rect x="520" y="120" width="120" height="8" rx="3" fill="rgba(255,255,255,0.12)"/>
  <rect x="520" y="138" width="190" height="5" rx="2" fill="rgba(255,255,255,0.05)"/>
  <rect x="520" y="150" width="160" height="5" rx="2" fill="rgba(255,255,255,0.04)"/>
  <rect x="520" y="175" width="220" height="6" rx="3" fill="rgba(255,255,255,0.04)"/>
  <rect x="520" y="175" width="100" height="6" rx="3" fill="rgba(99,102,241,0.4)"/>
  <rect x="520" y="190" width="40" height="4" rx="2" fill="rgba(255,255,255,0.06)"/>
  
  <!-- Schedule table -->
  <rect x="220" y="255" width="540" height="210" rx="8" fill="rgba(255,255,255,0.02)" stroke="rgba(255,255,255,0.06)" stroke-width="1"/>
  <rect x="240" y="275" width="100" height="8" rx="3" fill="rgba(255,255,255,0.1)"/>
  <!-- Table header -->
  <line x1="240" y1="298" x2="740" y2="298" stroke="rgba(255,255,255,0.06)" stroke-width="1"/>
  <rect x="240" y="308" width="60" height="5" rx="2" fill="rgba(255,255,255,0.08)"/>
  <rect x="350" y="308" width="80" height="5" rx="2" fill="rgba(255,255,255,0.08)"/>
  <rect x="480" y="308" width="60" height="5" rx="2" fill="rgba(255,255,255,0.08)"/>
  <rect x="600" y="308" width="60" height="5" rx="2" fill="rgba(255,255,255,0.08)"/>
  <!-- Table rows -->
  <line x1="240" y1="325" x2="740" y2="325" stroke="rgba(255,255,255,0.03)" stroke-width="1"/>
  <rect x="240" y="335" width="50" height="5" rx="2" fill="rgba(255,255,255,0.05)"/>
  <rect x="350" y="335" width="70" height="5" rx="2" fill="rgba(255,255,255,0.05)"/>
  <rect x="480" y="330" width="65" height="16" rx="4" fill="rgba(245,158,11,0.1)"/>
  <rect x="600" y="335" width="40" height="5" rx="2" fill="rgba(255,255,255,0.05)"/>
  
  <line x1="240" y1="355" x2="740" y2="355" stroke="rgba(255,255,255,0.03)" stroke-width="1"/>
  <rect x="240" y="365" width="60" height="5" rx="2" fill="rgba(255,255,255,0.05)"/>
  <rect x="350" y="365" width="90" height="5" rx="2" fill="rgba(255,255,255,0.05)"/>
  <rect x="480" y="360" width="65" height="16" rx="4" fill="rgba(99,102,241,0.1)"/>
  <rect x="600" y="365" width="50" height="5" rx="2" fill="rgba(255,255,255,0.05)"/>
  
  <line x1="240" y1="385" x2="740" y2="385" stroke="rgba(255,255,255,0.03)" stroke-width="1"/>
  <rect x="240" y="395" width="55" height="5" rx="2" fill="rgba(255,255,255,0.05)"/>
  <rect x="350" y="395" width="75" height="5" rx="2" fill="rgba(255,255,255,0.05)"/>
  <rect x="480" y="390" width="65" height="16" rx="4" fill="rgba(16,185,129,0.1)"/>
  <rect x="600" y="395" width="45" height="5" rx="2" fill="rgba(255,255,255,0.05)"/>
</svg>
